<svg xmlns="http://www.w3.org/2000/svg" xmlns:xlink="http://www.w3.org/1999/xlink" width="286.338" height="219.771" viewBox="0 0 75.76 58.148"><defs><linearGradient id="c"><stop offset="0" stop-color="#fff" stop-opacity="0"/><stop offset=".5" stop-color="#fff"/><stop offset="1" stop-color="#fff" stop-opacity="0"/></linearGradient><linearGradient id="b"><stop offset="0" stop-color="#fff"/><stop offset="1" stop-color="#fff" stop-opacity="0"/></linearGradient><linearGradient id="a"><stop offset="0" stop-color="#2a3137"/><stop offset=".5" stop-color="#3f4a53"/><stop offset="1" stop-color="#2a3137"/></linearGradient><linearGradient xlink:href="#a" id="h" x1="78.675" y1="124.133" x2="129.212" y2="124.133" gradientUnits="userSpaceOnUse"/><linearGradient xlink:href="#b" id="e" x1="43.385" y1="123.558" x2="52.402" y2="123.752" gradientUnits="userSpaceOnUse" gradientTransform="matrix(0 -.81743 1.0997 0 -36.508 186.02)"/><linearGradient xlink:href="#b" id="f" x1="43.385" y1="123.558" x2="52.402" y2="123.752" gradientUnits="userSpaceOnUse" gradientTransform="matrix(.81743 0 0 1.0997 36.981 -21.714)"/><linearGradient gradientTransform="translate(53.202 -70.78) scale(1.36975)" xlink:href="#c" id="g" x1="-76.264" y1="166.579" x2="-76.255" y2="169.486" gradientUnits="userSpaceOnUse"/><filter id="i" x="-.2" y="-.2" width="1.42" height="1.42" color-interpolation-filters="sRGB"><feFlood flood-opacity="1" flood-color="#000" result="flood"/><feComposite in="flood" in2="SourceGraphic" operator="in" result="composite1"/><feGaussianBlur in="composite1" stdDeviation="1.3" result="blur"/><feOffset dx=".5" dy="-.5" result="offset"/><feComposite in="SourceGraphic" in2="offset" result="composite2"/></filter><filter id="d" color-interpolation-filters="sRGB"><feFlood flood-opacity="1" flood-color="#717171" result="flood"/><feComposite in="flood" in2="SourceGraphic" operator="in" result="composite1"/><feGaussianBlur in="composite1" stdDeviation="1" result="blur"/><feOffset result="offset"/><feComposite in="SourceGraphic" in2="offset" result="composite2"/></filter></defs><g transform="translate(-60.153 -89.77) scale(.94314)" stroke-width="1.06"><rect ry="7.314" rx="7.314" y="100.32" x="70.474" height="51.378" width="66.94" fill="#15191c" filter="url(#d)"/><path d="M74.047 148.986c3.381-3.364 3.381-3.364 7.04-7.045 23.16.489 28.731.705 44.46.743.985-.514 6.695 3.184 8.82 5.704 0 1.315-2.617 2.168-3.932 2.168H77.28c-1.316 0-2.306-.68-3.233-1.57z" opacity=".15" fill="url(#e)"/><path d="M73.741 103.087c.744-.157 5.984 1.92 6.632 2.698l-1.538 31.709 2.252 4.447c-3.659 3.68-3.659 3.68-7.04 7.045-.639-.551-2.162-2.573-2.162-3.758v-38.567c0-1.202 1.154-3.198 1.856-3.574z" opacity=".15" fill="url(#f)"/><rect width="11.59" height="4.161" x="-57.117" y="157.142" rx="2.724" ry="2.08" transform="scale(1.02548 .97385) rotate(-45)" opacity=".2" fill="url(#g)"/><path d="M85.687 103.155H122.2a6.298 6.298 0 016.312 6.312v29.331a6.298 6.298 0 01-6.312 6.312s-6.645.65-18.257.65c-11.611 0-18.256-.65-18.256-.65a6.298 6.298 0 01-6.312-6.312v-29.331a6.298 6.298 0 016.312-6.312z" fill="url(#h)" stroke="#1f242a" stroke-width="1.484"/></g><path d="M45.34 19.774l-8.187 1.13v6.015h8.187zm-9.294 1.28l-6.052.834v5.03h6.052zm-6.052 7.009v4.944l6.052.834v-5.778zm7.16 0v5.927l8.186 1.13v-7.057z" fill="#dce6eb"/><g transform="translate(3.189 -118.594)" filter="url(#i)" stroke="#da0102" stroke-width="3.6"><circle r="14.174" cy="145.81" cx="34.396" fill="none"/><path d="M24.332 135.746l20.127 20.127" fill="#da0102" fill-rule="evenodd"/></g></svg>